# xmcd
#
# Track frame offsets: 
#        150
#        19046
#        39934
#        56809
#        85329
#        105515
#        128574
#        151884
#        176335
#        198600
#        223295
#        247921
#
# Disc length: 3738 seconds
#
# Revision: 0
# Processed by: cddbd v1.5.2PL0 Copyright (c) Steve Scherf et al.
# Submitted via: ExactAudioCopy v0.99pb5
#
DISCID=990e980c
DTITLE=Michelle King    (Galva, Ks) - Jesus Loves You !
DYEAR=1900
DGENRE=Southern Gospel/CCM
TTITLE0=Ten Thousand Angels Cried
TTITLE1=Sweet Beulah Land
TTITLE2=That's How Much I Love You
TTITLE3=Joy Comes In The Morning
TTITLE4=You Are My King
TTITLE5=Amazing Grace
TTITLE6=Grace Flows Down
TTITLE7=The Heart Of Worship
TTITLE8=You Are My Refuge
TTITLE9=Jesus Loves Me
TTITLE10=The Potter's Hand
TTITLE11=Thank You
EXTD=
EXTT0=
EXTT1=
EXTT2=
EXTT3=
EXTT4=
EXTT5=
EXTT6=
EXTT7=
EXTT8=
EXTT9=
EXTT10=
EXTT11=
PLAYORDER=
